<svg xmlns="http://www.w3.org/2000/svg" width="16" height="16" fill="currentColor">
  <path fill-rule="evenodd" d="M6.139 10.059h7.016a.198.198 0 0 0 .198-.198V7.786a.198.198 0 0 0-.197-.198H8.61a.198.198 0 0 1-.198-.197V2.845a.198.198 0 0 0-.198-.198H6.14a.198.198 0 0 0-.198.198V9.86c0 .11.089.198.198.198Z" clip-rule="evenodd"/>
  <path fill-rule="evenodd" d="M14.802 1h-5.37a.198.198 0 0 0-.197.198v5.37c0 .108.089.197.198.197h5.37A.198.198 0 0 0 15 6.567v-5.37A.198.198 0 0 0 14.802 1ZM5.118 3.234v3.768a.174.174 0 0 1-.175.174H1.175a.175.175 0 0 1-.124-.298L4.82 3.11a.175.175 0 0 1 .298.124Zm3.706 11.591v-3.768c0-.097.078-.175.174-.175h3.768c.156 0 .234.188.124.299l-3.768 3.768a.175.175 0 0 1-.298-.124Z" clip-rule="evenodd"/>
</svg>
